<svg xmlns="http://www.w3.org/2000/svg" xmlns:xlink="http://www.w3.org/1999/xlink" id="Layer_1" width="1097.953" height="841.89" x="0" y="0" enable-background="new 0 0 1097.953 841.89" version="1.1" viewBox="0 0 1097.953 841.89" xml:space="preserve"><line x1="910.744" x2="869.209" y1="149.314" y2="414.627" fill="none" stroke="#000" stroke-miterlimit="10" stroke-width="5"/><line x1="393.303" x2="749.953" y1="441.672" y2="482.047" fill="none" stroke="#A7A9AC" stroke-miterlimit="10" stroke-width="5"/><line x1="393.303" x2="754.604" y1="281.418" y2="445.312" fill="none" stroke="#000" stroke-miterlimit="10" stroke-width="5"/><rect width="311.628" height="277.674" x="81.674" y="72.349" fill="#FFF" stroke="#000" stroke-miterlimit="10" stroke-width="3"/><rect width="276.745" height="50" x="96.791" y="204.941" fill="#FFF" stroke="#000" stroke-miterlimit="10" stroke-width="3"/><rect width="276.745" height="50" x="99.116" y="281.418" fill="#FFF" stroke="#000" stroke-miterlimit="10" stroke-width="3"/><rect width="276.745" height="50" x="99.116" y="128.465" fill="#FFF" stroke="#000" stroke-miterlimit="10" stroke-width="3"/><rect width="197.674" height="34.302" x="97.698" y="81.314" fill="none"/><text font-family="'SourceCodePro-Regular'" font-size="36" transform="matrix(1 0 0 1 97.6978 106.9458)">Collector</text><rect width="197.675" height="26.732" x="111.442" y="143.314" fill="none"/><text font-family="'SourceCodePro-Regular'" font-size="24" transform="matrix(1 0 0 1 111.4424 160.4019)">Policy</text><rect width="197.675" height="26.732" x="111.442" y="216.575" fill="none"/><text font-family="'SourceCodePro-Regular'" font-size="24" transform="matrix(1 0 0 1 111.4424 233.6631)">Input list</text><rect width="256.978" height="26.732" x="111.442" y="293.052" fill="none"/><text font-family="'SourceCodePro-Regular'" font-size="24" transform="matrix(1 0 0 1 111.4424 310.1401)">NetTest deck list</text><rect width="311.628" height="277.675" x="81.675" y="365.86" fill="#FFF" stroke="#000" stroke-miterlimit="10" stroke-width="3"/><rect width="286.046" height="34.302" x="97.698" y="374.826" fill="none"/><text font-family="'SourceCodePro-Regular'" font-size="36" transform="matrix(1 0 0 1 97.6982 400.4575)">Test Helpers</text><rect width="278.814" height="26.732" x="107.698" y="420.945" fill="none"/><text font-family="'SourceCodePro-Regular'" font-size="18" transform="matrix(1 0 0 1 107.6982 433.7598)">HTTP Return JSON Headers</text><rect width="278.814" height="26.733" x="107.698" y="462.032" fill="none"/><text font-family="'SourceCodePro-Regular'" font-size="18" transform="matrix(1 0 0 1 107.6982 474.8477)">DNS Test Helper</text><rect width="278.814" height="26.734" x="107.698" y="503.119" fill="none"/><text font-family="'SourceCodePro-Regular'" font-size="18" transform="matrix(1 0 0 1 107.6982 515.9355)">TCP Echo</text><rect width="278.814" height="26.733" x="107.698" y="544.207" fill="none"/><text font-family="'SourceCodePro-Regular'" font-size="18" transform="matrix(1 0 0 1 107.6982 557.0234)">Daphne</text><rect width="278.814" height="26.732" x="107.698" y="585.295" fill="none"/><text font-family="'SourceCodePro-Regular'" font-size="18" transform="matrix(1 0 0 1 107.6982 598.1104)">SSL</text><rect width="227.443" height="100.472" x="840.744" y="48.229" fill="#FFF" stroke="#000" stroke-miterlimit="10" stroke-width="3"/><rect width="197.676" height="34.301" x="856.768" y="57.195" fill="none"/><text font-family="'SourceCodePro-Regular'" font-size="36" transform="matrix(1 0 0 1 856.7686 82.8262)">Bouncer</text><line x1="421.209" x2="840.744" y1="211.186" y2="98.465" fill="none" stroke="#000" stroke-miterlimit="10" stroke-width="5"/><line x1="415.209" x2="834.744" y1="203.825" y2="91.104" fill="none"/><text transform="matrix(0.9657 -0.2595 0.2595 0.9657 525.4668 174.2007)"><tspan x="0" y="0" font-family="'SourceCodePro-Regular'" font-size="18">E</tspan><tspan x="10.807" y="0" font-family="'SourceCodePro-Regular'" font-size="18">n</tspan><tspan x="21.624" y="0" font-family="'SourceCodePro-Regular'" font-size="18">d</tspan><tspan x="32.408" y="0" font-family="'SourceCodePro-Regular'" font-size="18"> </tspan><tspan x="43.235" y="0" font-family="'SourceCodePro-Regular'" font-size="18">t</tspan><tspan x="54.035" y="0" font-family="'SourceCodePro-Regular'" font-size="18">o</tspan><tspan x="64.82" y="0" font-family="'SourceCodePro-Regular'" font-size="18"> </tspan><tspan x="75.639" y="0" font-family="'SourceCodePro-Regular'" font-size="18">e</tspan><tspan x="86.428" y="0" font-family="'SourceCodePro-Regular'" font-size="18">n</tspan><tspan x="97.242" y="0" font-family="'SourceCodePro-Regular'" font-size="18">d</tspan><tspan x="108.035" y="0" font-family="'SourceCodePro-Regular'" font-size="18"> </tspan><tspan x="118.847" y="0" font-family="'SourceCodePro-Regular'" font-size="18">E</tspan><tspan x="129.631" y="0" font-family="'SourceCodePro-Regular'" font-size="18">n</tspan><tspan x="140.422" y="0" font-family="'SourceCodePro-Regular'" font-size="18">c</tspan><tspan x="151.232" y="0" font-family="'SourceCodePro-Regular'" font-size="18">r</tspan><tspan x="162.032" y="0" font-family="'SourceCodePro-Regular'" font-size="18">y</tspan><tspan x="172.829" y="0" font-family="'SourceCodePro-Regular'" font-size="18">p</tspan><tspan x="183.661" y="0" font-family="'SourceCodePro-Regular'" font-size="18">t</tspan><tspan x="194.45" y="0" font-family="'SourceCodePro-Regular'" font-size="18">e</tspan><tspan x="205.26" y="0" font-family="'SourceCodePro-Regular'" font-size="18">d</tspan></text><circle cx="827.023" cy="471.047" r="79.07" fill="#00AEEF"/><text font-family="'SourceCodePro-Bold'" font-size="21" transform="matrix(1 0 0 1 764 479.3984)">OONI Probe</text><line x1="393.303" x2="752.604" y1="274.058" y2="434.312" fill="none"/><text transform="matrix(0.9133 0.4073 -0.4073 0.9133 487.7412 316.1787)"><tspan x="0" y="0" font-family="'SourceCodePro-Regular'" font-size="18">E</tspan><tspan x="10.802" y="0" font-family="'SourceCodePro-Regular'" font-size="18">n</tspan><tspan x="21.617" y="0" font-family="'SourceCodePro-Regular'" font-size="18">d</tspan><tspan x="32.429" y="0" font-family="'SourceCodePro-Regular'" font-size="18"> </tspan><tspan x="43.23" y="0" font-family="'SourceCodePro-Regular'" font-size="18">t</tspan><tspan x="54.018" y="0" font-family="'SourceCodePro-Regular'" font-size="18">o</tspan><tspan x="64.827" y="0" font-family="'SourceCodePro-Regular'" font-size="18"> </tspan><tspan x="75.629" y="0" font-family="'SourceCodePro-Regular'" font-size="18">e</tspan><tspan x="86.428" y="0" font-family="'SourceCodePro-Regular'" font-size="18">n</tspan><tspan x="97.23" y="0" font-family="'SourceCodePro-Regular'" font-size="18">d</tspan><tspan x="108.043" y="0" font-family="'SourceCodePro-Regular'" font-size="18"> </tspan><tspan x="118.838" y="0" font-family="'SourceCodePro-Regular'" font-size="18">E</tspan><tspan x="129.653" y="0" font-family="'SourceCodePro-Regular'" font-size="18">n</tspan><tspan x="140.458" y="-.001" font-family="'SourceCodePro-Regular'" font-size="18">c</tspan><tspan x="151.248" y="0" font-family="'SourceCodePro-Regular'" font-size="18">r</tspan><tspan x="162.054" y="0" font-family="'SourceCodePro-Regular'" font-size="18">y</tspan><tspan x="172.862" y="0" font-family="'SourceCodePro-Regular'" font-size="18">p</tspan><tspan x="183.649" y="0" font-family="'SourceCodePro-Regular'" font-size="18">t</tspan><tspan x="194.448" y="0" font-family="'SourceCodePro-Regular'" font-size="18">e</tspan><tspan x="205.266" y="0" font-family="'SourceCodePro-Regular'" font-size="18">d</tspan></text><rect width="358.139" height="610.465" x="63.07" y="54.907" fill="none" stroke="#EC008C" stroke-miterlimit="10" stroke-width="4"/><line x1="393.303" x2="747.953" y1="434.312" y2="471.047" fill="none"/><text transform="matrix(0.9947 0.103 -0.103 0.9947 486.5156 443.9668)"><tspan x="0" y="0" font-family="'SourceCodePro-Regular'" font-size="18">C</tspan><tspan x="10.805" y="0" font-family="'SourceCodePro-Regular'" font-size="18">o</tspan><tspan x="21.599" y="-.001" font-family="'SourceCodePro-Regular'" font-size="18">n</tspan><tspan x="32.419" y="0" font-family="'SourceCodePro-Regular'" font-size="18">t</tspan><tspan x="43.214" y="0" font-family="'SourceCodePro-Regular'" font-size="18">r</tspan><tspan x="54.036" y="-.001" font-family="'SourceCodePro-Regular'" font-size="18">o</tspan><tspan x="64.814" y="0" font-family="'SourceCodePro-Regular'" font-size="18">l</tspan><tspan x="75.637" y="0" font-family="'SourceCodePro-Regular'" font-size="18"> </tspan><tspan x="86.44" y="0" font-family="'SourceCodePro-Regular'" font-size="18">C</tspan><tspan x="97.219" y="-.001" font-family="'SourceCodePro-Regular'" font-size="18">h</tspan><tspan x="108.036" y="0" font-family="'SourceCodePro-Regular'" font-size="18">a</tspan><tspan x="118.837" y="0" font-family="'SourceCodePro-Regular'" font-size="18">n</tspan><tspan x="129.627" y="0" font-family="'SourceCodePro-Regular'" font-size="18">n</tspan><tspan x="140.443" y="0" font-family="'SourceCodePro-Regular'" font-size="18">e</tspan><tspan x="151.244" y="-.001" font-family="'SourceCodePro-Regular'" font-size="18">l</tspan></text><line x1="923.744" x2="882.209" y1="95.021" y2="398.684" fill="none"/><text font-family="'SourceCodePro-Regular'" font-size="21.136" transform="matrix(-0.1154 0.8438 -0.9908 -0.1355 912.8262 174.8379)">E</text><text font-family="'SourceCodePro-Regular'" font-size="21.136" transform="matrix(-0.1154 0.8438 -0.9908 -0.1355 911.3613 185.543)">n</text><text font-family="'SourceCodePro-Regular'" font-size="21.136" transform="matrix(-0.1154 0.8438 -0.9908 -0.1355 909.8975 196.25)">d</text><text font-family="'SourceCodePro-Regular'" font-size="21.136" transform="matrix(-0.1154 0.8438 -0.9908 -0.1355 906.9707 217.6533)">t</text><text font-family="'SourceCodePro-Regular'" font-size="21.136" transform="matrix(-0.1154 0.8438 -0.9908 -0.1355 905.5088 228.3389)">o</text><text font-family="'SourceCodePro-Regular'" font-size="21.136" transform="matrix(-0.1154 0.8438 -0.9908 -0.1355 902.5791 249.7549)">e</text><text font-family="'SourceCodePro-Regular'" font-size="21.136" transform="matrix(-0.1154 0.8438 -0.9908 -0.1355 901.1172 260.4463)">n</text><text font-family="'SourceCodePro-Regular'" font-size="21.136" transform="matrix(-0.1154 0.8438 -0.9908 -0.1355 899.6514 271.1621)">d</text><text font-family="'SourceCodePro-Regular'" font-size="21.136" transform="matrix(-0.1154 0.8438 -0.9908 -0.1355 896.7246 292.5605)">E</text><text font-family="'SourceCodePro-Regular'" font-size="21.136" transform="matrix(-0.1154 0.8438 -0.9908 -0.1355 895.2617 303.252)">n</text><text font-family="'SourceCodePro-Regular'" font-size="21.136" transform="matrix(-0.1154 0.8438 -0.9908 -0.1355 893.7959 313.9712)">c</text><text font-family="'SourceCodePro-Regular'" font-size="21.136" transform="matrix(-0.1154 0.8438 -0.9908 -0.1355 892.333 324.6646)">r</text><text font-family="'SourceCodePro-Regular'" font-size="21.136" transform="matrix(-0.1154 0.8438 -0.9908 -0.1355 890.8691 335.3677)">y</text><text font-family="'SourceCodePro-Regular'" font-size="21.136" transform="matrix(-0.1154 0.8438 -0.9908 -0.1355 889.4053 346.0737)">p</text><text font-family="'SourceCodePro-Regular'" font-size="21.136" transform="matrix(-0.1154 0.8438 -0.9908 -0.1355 887.9395 356.7803)">t</text><text font-family="'SourceCodePro-Regular'" font-size="21.136" transform="matrix(-0.1154 0.8438 -0.9908 -0.1355 886.4766 367.4766)">e</text><text font-family="'SourceCodePro-Regular'" font-size="21.136" transform="matrix(-0.1154 0.8438 -0.9908 -0.1355 885.0107 378.1973)">d</text></svg>